<svg width="8" height="6" viewBox="0 0 8 6" fill="none" xmlns="http://www.w3.org/2000/svg">
<path d="M7.85366 0.854006C7.94754 0.76012 8.00029 0.632782 8.00029 0.500006C8.00029 0.36723 7.94754 0.239893 7.85366 0.146006C7.75977 0.0521195 7.63243 -0.00062561 7.49966 -0.00062561C7.36688 -0.00062561 7.23954 0.0521195 7.14566 0.146006L2.49966 4.79301L0.853655 3.14601C0.759769 3.05212 0.632431 2.99937 0.499655 2.99937C0.366879 2.99937 0.239542 3.05212 0.145655 3.14601C0.0517685 3.23989 -0.000976559 3.36723 -0.000976562 3.50001C-0.000976566 3.63278 0.0517685 3.76012 0.145655 3.85401L2.14566 5.85401C2.1921 5.90057 2.24728 5.93751 2.30802 5.96272C2.36877 5.98792 2.43389 6.0009 2.49966 6.0009C2.56542 6.0009 2.63054 5.98792 2.69129 5.96272C2.75203 5.93751 2.80721 5.90057 2.85366 5.85401L7.85366 0.854006Z" fill="#FAF9F8"/>
</svg>
