<svg width="172" height="26" viewBox="0 0 172 26" fill="none" xmlns="http://www.w3.org/2000/svg">
<g clip-path="url(#clip0_1088_23006)">
<path d="M152.299 23.7748C152.182 24.4408 152.839 24.9613 153.418 24.6643L160.003 21.2803L166.586 24.6643C167.165 24.9613 167.822 24.4408 167.705 23.7763L166.46 16.6813L171.743 11.6473C172.238 11.1763 171.983 10.3153 171.32 10.2223L163.973 9.17826L160.697 2.68776C160.635 2.5562 160.537 2.44504 160.414 2.3672C160.29 2.28937 160.148 2.24805 160.002 2.24805C159.857 2.24805 159.714 2.28937 159.591 2.3672C159.468 2.44504 159.369 2.5562 159.307 2.68776L156.031 9.17976L148.684 10.2238C148.022 10.3168 147.766 11.1778 148.259 11.6488L153.544 16.6828L152.299 23.7778V23.7748ZM159.656 19.6243L154.127 22.4653L155.168 16.5298C155.193 16.3931 155.183 16.2526 155.141 16.1205C155.098 15.9884 155.024 15.8689 154.924 15.7723L150.565 11.6173L156.643 10.7533C156.769 10.7343 156.888 10.685 156.991 10.6098C157.094 10.5346 157.176 10.4355 157.232 10.3213L160 4.83426L162.77 10.3213C162.827 10.4355 162.909 10.5346 163.012 10.6098C163.115 10.685 163.234 10.7343 163.36 10.7533L169.438 11.6158L165.079 15.7708C164.979 15.8675 164.905 15.9873 164.862 16.1197C164.819 16.2521 164.81 16.3929 164.834 16.5298L165.875 22.4653L160.346 19.6243C160.24 19.5691 160.121 19.5404 160.001 19.5404C159.88 19.5404 159.763 19.5691 159.656 19.6243Z" fill="#FAF9F8"/>
</g>
<g clip-path="url(#clip1_1088_23006)">
<path d="M5.418 24.6643C4.839 24.9613 4.182 24.4408 4.299 23.7763L5.544 16.6813L0.259498 11.6473C-0.234002 11.1763 0.0224981 10.3153 0.683998 10.2223L8.031 9.17827L11.307 2.68777C11.6025 2.10277 12.402 2.10277 12.6975 2.68777L15.9735 9.17827L23.3205 10.2223C23.982 10.3153 24.2385 11.1763 23.7435 11.6473L18.4605 16.6813L19.7055 23.7763C19.8225 24.4408 19.1655 24.9613 18.5865 24.6643L12 21.2803L5.418 24.6643Z" fill="#9AE5BD"/>
</g>
<g clip-path="url(#clip2_1088_23006)">
<path d="M42.418 24.6643C41.839 24.9613 41.182 24.4408 41.299 23.7763L42.544 16.6813L37.2595 11.6473C36.766 11.1763 37.0225 10.3153 37.684 10.2223L45.031 9.17827L48.307 2.68777C48.6025 2.10277 49.402 2.10277 49.6975 2.68777L52.9735 9.17827L60.3205 10.2223C60.982 10.3153 61.2385 11.1763 60.7435 11.6473L55.4605 16.6813L56.7055 23.7763C56.8225 24.4408 56.1655 24.9613 55.5865 24.6643L49 21.2803L42.418 24.6643Z" fill="#9AE5BD"/>
</g>
<g clip-path="url(#clip3_1088_23006)">
<path d="M79.418 24.6643C78.839 24.9613 78.182 24.4408 78.299 23.7763L79.544 16.6813L74.2595 11.6473C73.766 11.1763 74.0225 10.3153 74.684 10.2223L82.031 9.17827L85.307 2.68777C85.6025 2.10277 86.402 2.10277 86.6975 2.68777L89.9735 9.17827L97.3205 10.2223C97.982 10.3153 98.2385 11.1763 97.7435 11.6473L92.4605 16.6813L93.7055 23.7763C93.8225 24.4408 93.1655 24.9613 92.5865 24.6643L86 21.2803L79.418 24.6643Z" fill="#9AE5BD"/>
</g>
<g clip-path="url(#clip4_1088_23006)">
<path d="M116.418 24.6643C115.839 24.9613 115.182 24.4408 115.299 23.7763L116.544 16.6813L111.259 11.6473C110.766 11.1763 111.022 10.3153 111.684 10.2223L119.031 9.17827L122.307 2.68777C122.602 2.10277 123.402 2.10277 123.697 2.68777L126.973 9.17827L134.32 10.2223C134.982 10.3153 135.238 11.1763 134.743 11.6473L129.46 16.6813L130.705 23.7763C130.822 24.4408 130.165 24.9613 129.586 24.6643L123 21.2803L116.418 24.6643Z" fill="#9AE5BD"/>
</g>
<defs>
<clipPath id="clip0_1088_23006">
<rect width="24" height="24" fill="white" transform="translate(148 1.5)"/>
</clipPath>
<clipPath id="clip1_1088_23006">
<rect width="24" height="24" fill="white" transform="translate(0 1.5)"/>
</clipPath>
<clipPath id="clip2_1088_23006">
<rect width="24" height="24" fill="white" transform="translate(37 1.5)"/>
</clipPath>
<clipPath id="clip3_1088_23006">
<rect width="24" height="24" fill="white" transform="translate(74 1.5)"/>
</clipPath>
<clipPath id="clip4_1088_23006">
<rect width="24" height="24" fill="white" transform="translate(111 1.5)"/>
</clipPath>
</defs>
</svg>
