<svg width="64" height="64" viewBox="0 0 64 64" fill="none" xmlns="http://www.w3.org/2000/svg">
<path d="M29.5 24.0355V46C29.5 46.663 29.7634 47.2989 30.2322 47.7678C30.7011 48.2366 31.337 48.5 32 48.5C32.663 48.5 33.2989 48.2366 33.7678 47.7678C34.2366 47.2989 34.5 46.663 34.5 46V24.0355L42.2304 31.7695L42.2304 31.7696C42.6998 32.2389 43.3363 32.5025 44 32.5025C44.6637 32.5025 45.3002 32.2389 45.7696 31.7696C46.2389 31.3002 46.5025 30.6637 46.5025 30C46.5025 29.3363 46.2389 28.6998 45.7696 28.2304L33.77 16.2309L29.5 24.0355ZM29.5 24.0355L21.7696 31.7695L21.7696 31.7696C21.3002 32.2389 20.6637 32.5025 20 32.5025C19.3363 32.5025 18.6998 32.2389 18.2304 31.7696C17.7611 31.3002 17.4975 30.6637 17.4975 30C17.4975 29.3363 17.7611 28.6998 18.2304 28.2304L30.23 16.2309L29.5 24.0355ZM54.2739 9.72614C60.1813 15.6335 63.5 23.6457 63.5 32C63.5 40.3543 60.1813 48.3665 54.2739 54.2739C48.3665 60.1813 40.3543 63.5 32 63.5C23.6457 63.5 15.6335 60.1813 9.72614 54.2739C3.81874 48.3665 0.5 40.3543 0.5 32C0.5 23.6457 3.81874 15.6335 9.72614 9.72614C15.6335 3.81874 23.6457 0.5 32 0.5C40.3543 0.5 48.3665 3.81874 54.2739 9.72614ZM31.0418 15.6873C30.7383 15.8133 30.4626 15.9978 30.2304 16.2304H33.7696C33.5374 15.9978 33.2617 15.8133 32.9582 15.6873C32.6544 15.5613 32.3288 15.4964 32 15.4964C31.6712 15.4964 31.3456 15.5613 31.0418 15.6873Z" />
</svg>
