<svg width="112" height="105" viewBox="0 0 112 105" fill="none" xmlns="http://www.w3.org/2000/svg">
<path d="M111.057 13.6411L98.1266 0.708069C97.6725 0.254658 97.0569 0 96.4152 0C95.7734 0 95.1578 0.254658 94.7037 0.708069L47.9801 47.4316L38.8752 38.3296C38.4212 37.8758 37.8055 37.6209 37.1637 37.6209C36.5218 37.6209 35.9061 37.8758 35.4521 38.3296L22.5192 51.2626C22.2939 51.4871 22.1152 51.7538 21.9933 52.0475C21.8714 52.3412 21.8086 52.6561 21.8086 52.9741C21.8086 53.2921 21.8714 53.6069 21.9933 53.9006C22.1152 54.1943 22.2939 54.4611 22.5192 54.6856L46.1921 78.3526C46.6451 78.8056 47.2602 79.0621 47.9037 79.0621C47.9322 79.0621 47.9592 79.0471 47.9877 79.0471C48.0117 79.0471 48.0372 79.0606 48.0627 79.0606C48.3806 79.0608 48.6954 78.9982 48.9891 78.8765C49.2828 78.7547 49.5496 78.5762 49.7741 78.3511L111.057 17.0656C112.002 16.1176 112.002 14.5861 111.057 13.6411Z" fill="#9AE5BD"/>
<path d="M81.033 57.5792V89.3177H14.967V23.2517H61.557L76.5255 8.28467H7.7895V8.29517C7.755 8.29517 7.7235 8.28467 7.6875 8.28467C5.68303 8.28609 3.75861 9.07145 2.32549 10.4729C0.892369 11.8743 0.064213 13.7807 0.0179987 15.7847H0V96.7847H0.0195007C0.0667214 98.7538 0.870002 100.629 2.26276 102.022C3.65552 103.415 5.5309 104.218 7.5 104.265V104.285H88.5V104.265C90.4692 104.218 92.3448 103.415 93.7376 102.022C95.1305 100.629 95.9336 98.7539 95.9805 96.7847H96V42.6122L81.033 57.5792Z" fill="#9AE5BD"/>
</svg>
