<svg width="17" height="15" viewBox="0 0 17 15" fill="none" xmlns="http://www.w3.org/2000/svg">
<path d="M8.4377 1.51693C8.4573 1.50618 8.47935 1.50067 8.5017 1.50093C8.52372 1.50084 8.54539 1.50635 8.5647 1.51693C8.58757 1.53064 8.60624 1.55035 8.6187 1.57393L15.4757 13.2409C15.5117 13.3009 15.5107 13.3649 15.4777 13.4239C15.465 13.4481 15.4464 13.4688 15.4237 13.4839C15.4039 13.4961 15.3809 13.502 15.3577 13.5009H1.6457C1.62249 13.5021 1.59948 13.4961 1.5797 13.4839C1.55696 13.4688 1.53839 13.4481 1.5257 13.4239C1.50922 13.3962 1.50069 13.3644 1.50105 13.3321C1.5014 13.2999 1.51062 13.2683 1.5277 13.2409L8.3837 1.57393C8.3962 1.55038 8.41487 1.53068 8.4377 1.51693ZM9.4817 1.06693C9.38271 0.894492 9.23998 0.751228 9.06791 0.651601C8.89584 0.551974 8.70053 0.499512 8.5017 0.499512C8.30287 0.499512 8.10756 0.551974 7.93549 0.651601C7.76343 0.751228 7.62069 0.894492 7.5217 1.06693L0.664702 12.7339C0.207702 13.5119 0.755702 14.5009 1.6447 14.5009H15.3577C16.2467 14.5009 16.7957 13.5109 16.3377 12.7339L9.4817 1.06693Z" fill="#FF0000"/>
<path d="M7.50195 11.5009C7.50195 11.3696 7.52782 11.2396 7.57807 11.1183C7.62833 10.9969 7.70199 10.8867 7.79485 10.7938C7.88771 10.701 7.99794 10.6273 8.11927 10.5771C8.2406 10.5268 8.37063 10.5009 8.50195 10.5009C8.63328 10.5009 8.76331 10.5268 8.88464 10.5771C9.00596 10.6273 9.1162 10.701 9.20906 10.7938C9.30192 10.8867 9.37558 10.9969 9.42583 11.1183C9.47609 11.2396 9.50195 11.3696 9.50195 11.5009C9.50195 11.7662 9.3966 12.0205 9.20906 12.208C9.02152 12.3956 8.76717 12.5009 8.50195 12.5009C8.23674 12.5009 7.98238 12.3956 7.79485 12.208C7.60731 12.0205 7.50195 11.7662 7.50195 11.5009ZM7.59995 5.49594C7.58664 5.36978 7.59999 5.24223 7.63915 5.12157C7.67831 5.00091 7.74241 4.88982 7.82727 4.79553C7.91214 4.70123 8.01588 4.62583 8.13176 4.57422C8.24765 4.52261 8.37309 4.49594 8.49995 4.49594C8.62681 4.49594 8.75226 4.52261 8.86814 4.57422C8.98403 4.62583 9.08777 4.70123 9.17263 4.79553C9.2575 4.88982 9.32159 5.00091 9.36075 5.12157C9.39991 5.24223 9.41327 5.36978 9.39995 5.49594L9.04995 9.00294C9.03819 9.14071 8.97516 9.26905 8.87331 9.36258C8.77146 9.4561 8.63823 9.50799 8.49995 9.50799C8.36168 9.50799 8.22844 9.4561 8.1266 9.36258C8.02475 9.26905 7.96171 9.14071 7.94995 9.00294L7.59995 5.49594Z" fill="white"/>
</svg>
